<mxfile host="app.diagrams.net" modified="2024-04-01T06:40:59.624Z" agent="Mozilla/5.0 (X11; Linux x86_64) AppleWebKit/537.36 (KHTML, like Gecko) Chrome/112.0.0.0 Safari/537.36" version="24.2.1" etag="eXGGGDBtylB9Rv1605in" type="github">
  <diagram name="第 1 页" id="FNltM8b3ENmsudPbRGWF">
    <mxGraphModel>
      <root>
        <mxCell id="0" />
        <mxCell id="1" parent="0" />
      </root>
    </mxGraphModel>
  </diagram>
</mxfile>
